Coordinates
version=1
nRows=24
nColumns=38
inDegrees=no

Units are S.I. units (second, meters, Newtons, ...)
If the header above contains a line with 'inDegrees', this indicates whether rotational values are in degrees (yes) or radians (no).

endheader
time	pelvis_tilt	pelvis_list	pelvis_rotation	pelvis_tx	pelvis_ty	pelvis_tz	hip_flexion_r	hip_adduction_r	hip_rotation_r	knee_angle_r	ankle_angle_r	subtalar_angle_r	mtp_angle_r	hip_flexion_l	hip_adduction_l	hip_rotation_l	knee_angle_l	ankle_angle_l	subtalar_angle_l	mtp_angle_l	lumbar_extension	lumbar_bending	lumbar_rotation	arm_flex_r	arm_add_r	arm_rot_r	elbow_flex_r	pro_sup_r	wrist_flex_r	wrist_dev_r	arm_flex_l	arm_add_l	arm_rot_l	elbow_flex_l	pro_sup_l	wrist_flex_l	wrist_dev_l
0	2.99495	1.40656	-1.36522	0.74482	-0.58065	0.957705	-0.211327	0.0694871	-0.245845	0.138525	0.0903386	0	0	-0.206305	-0.209821	-0.294048	0.705069	-0.068812	0	0	-0.684143	0.0205176	0.0650011	0.129273	-0.666561	0.679599	1.50277	1.12933	0	0	0.0434194	-0.663829	0.407091	1.60389	1.2142	0	0
0.01	2.98	1.40294	-1.35798	0.745992	-0.578839	0.959481	-0.224004	0.0730827	-0.251533	0.121412	0.0782066	0	0	-0.19863	-0.20939	-0.2952	0.706996	-0.0608666	0	0	-0.68612	0.0198069	0.0724195	0.129055	-0.663545	0.681667	1.49472	1.13333	0	0	0.0415701	-0.659499	0.40772	1.59477	1.21801	0	0
0.02	3.06021	1.37694	-1.43899	0.747663	-0.576905	0.96068	-0.258718	0.0655228	-0.23492	0.120664	0.0860183	0	0	-0.21708	-0.198452	-0.292737	0.707081	-0.0483722	0	0	-0.725406	0.00815441	0.0684982	0.111098	-0.665191	0.660393	1.52654	1.14135	0	0	0.0248225	-0.672161	0.388766	1.62884	1.22514	0	0
0.03	3.05176	1.38815	-1.42635	0.746794	-0.571187	0.962145	-0.264835	0.0689738	-0.252181	0.0952705	0.0697606	0	0	-0.199273	-0.193285	-0.28337	0.696748	-0.0409059	0	0	-0.689835	0.0125831	0.064637	0.115176	-0.648761	0.682134	1.47443	1.14319	0	0	0.0279828	-0.658256	0.406341	1.58293	1.22963	0	0
0.04	3.08666	1.37822	-1.47086	0.749381	-0.570336	0.962657	-0.281895	0.0640463	-0.253055	0.0849589	0.0673977	0	0	-0.197807	-0.186892	-0.290636	0.699914	-0.028081	0	0	-0.715152	0.00317088	0.0618327	0.11339	-0.647748	0.676641	1.49882	1.15024	0	0	-0.000713076	-0.664177	0.36917	1.61105	1.23573	0	0
0.05	3.12162	1.41069	-1.52194	0.753044	-0.567404	0.9604	-0.256801	0.0553563	-0.258288	0.0689833	0.0685086	0	0	-0.153577	-0.177231	-0.303918	0.70265	-0.0173478	0	0	-0.679226	-0.0110469	0.0560002	0.127261	-0.630429	0.700332	1.47724	1.15261	0	0	-0.030862	-0.660512	0.340568	1.59851	1.23749	0	0
0.06	3.09948	1.42018	-1.51095	0.753848	-0.565161	0.959331	-0.248434	0.0529236	-0.256363	0.0838387	0.100111	0	0	-0.142035	-0.174167	-0.314172	0.690346	0.0037501	0	0	-0.645428	-0.0222256	0.0899861	0.0993708	-0.627618	0.680256	1.44949	1.15231	0	0	0.0219399	-0.660747	0.414216	1.56475	1.21828	0	0
0.07	-3.12961	1.39631	-1.57068	0.756259	-0.5645	0.961688	-0.283172	0.0498683	-0.244182	0.0532405	0.067843	0	0	-0.149884	-0.167798	-0.320213	0.693051	0.00588034	0	0	-0.684837	-0.0346681	0.0886794	0.0910214	-0.626148	0.665093	1.47439	1.1574	0	0	0.00887164	-0.670929	0.39501	1.58927	1.21977	0	0
0.08	-3.1102	1.41451	-1.59213	0.756872	-0.559818	0.961303	-0.273435	0.0476282	-0.241834	0.0440802	0.0647662	0	0	-0.125269	-0.162093	-0.32392	0.6809	0.0172936	0	0	-0.641664	-0.0403688	0.0943034	0.088989	-0.609986	0.678656	1.42745	1.15412	0	0	0.0236683	-0.664558	0.426454	1.54678	1.21558	0	0
0.09	-3.08439	1.3882	-1.61914	0.758291	-0.560317	0.963467	-0.299344	0.0406135	-0.243828	0.0630028	0.0941916	0	0	-0.143813	-0.157004	-0.335531	0.666017	0.0279491	0	0	-0.684699	-0.0480499	0.0939722	0.0770331	-0.613035	0.655435	1.45966	1.16178	0	0	0.0182248	-0.674587	0.412569	1.57527	1.21722	0	0
0.1	-3.05195	1.41453	-1.65279	0.759137	-0.555254	0.962216	-0.284841	0.0415008	-0.23437	0.0312011	0.0599175	0	0	-0.109984	-0.151193	-0.339802	0.653197	0.04063	0	0	-0.631863	-0.053094	0.0955149	0.0801835	-0.594206	0.677224	1.40631	1.16142	0	0	0.0256179	-0.667807	0.437373	1.53031	1.2144	0	0
0.11	-3.06684	1.38568	-1.64233	0.759304	-0.553912	0.963489	-0.317893	0.0377522	-0.233688	0.0464716	0.089775	0	0	-0.131395	-0.147635	-0.340148	0.645264	0.0589657	0	0	-0.672644	-0.0536282	0.10108	0.0613618	-0.605078	0.654535	1.44468	1.17858	0	0	0.0130825	-0.671688	0.42115	1.55843	1.21969	0	0
0.12	-3.05548	1.3858	-1.65538	0.760174	-0.55143	0.963542	-0.327728	0.0397911	-0.224976	0.0180698	0.0588316	0	0	-0.124941	-0.144767	-0.348828	0.630115	0.0714548	0	0	-0.666638	-0.0572411	0.103366	0.0558834	-0.599691	0.655064	1.43551	1.18022	0	0	0.0118649	-0.672016	0.424793	1.55365	1.21922	0	0
0.13	-2.82296	1.43595	-1.88795	0.758377	-0.549026	0.959102	-0.256551	0.00157447	-0.241884	0.0613763	0.110091	0	0	-0.0579891	-0.107997	-0.352523	0.607952	0.0778715	0	0	-0.588091	-0.0793832	0.0932914	0.0602832	-0.583798	0.67345	1.38334	1.18006	0	0	0.020892	-0.661064	0.448242	1.51107	1.21805	0	0
0.14	-2.88026	1.4098	-1.83347	0.758662	-0.547651	0.959975	-0.291769	0.00239648	-0.24225	0.0538798	0.109895	0	0	-0.0789253	-0.104498	-0.350194	0.594043	0.0943892	0	0	-0.62649	-0.0791441	0.0971255	0.0421346	-0.592502	0.650806	1.4183	1.18721	0	0	0.00854722	-0.666037	0.432904	1.54207	1.22193	0	0
0.15	-2.87342	1.40888	-1.83991	0.758792	-0.545375	0.959945	-0.297848	0.00185953	-0.242551	0.0486927	0.110009	0	0	-0.0752071	-0.0999391	-0.356915	0.570294	0.107155	0	0	-0.621368	-0.080024	0.0980768	0.0360191	-0.589187	0.649529	1.41268	1.1891	0	0	0.00651217	-0.664744	0.435529	1.53741	1.22272	0	0
0.16	-2.86397	1.40757	-1.84775	0.758783	-0.54298	0.959781	-0.304058	0.000982922	-0.241913	0.045101	0.114259	0	0	-0.0729065	-0.09479	-0.363543	0.544329	0.121723	0	0	-0.616146	-0.0807893	0.0968314	0.0306087	-0.586042	0.649268	1.40788	1.19033	0	0	0.00254421	-0.663884	0.436476	1.53241	1.22307	0	0
0.17	-2.84056	1.40832	-1.8655	0.758816	-0.541478	0.959722	-0.306124	5.61269e-05	-0.243403	0.0426176	0.117463	0	0	-0.0704494	-0.0903689	-0.382773	0.507736	0.128789	0	0	-0.610551	-0.0820072	0.0906259	0.0286	-0.580522	0.648919	1.40124	1.18966	0	0	-8.80913e-05	-0.664885	0.436426	1.5279	1.22297	0	0
0.18	-2.84408	1.40563	-1.85955	0.758523	-0.538979	0.959492	-0.315936	0.00122014	-0.243074	0.0361114	0.116252	0	0	-0.0739922	-0.0856223	-0.392602	0.47215	0.136387	0	0	-0.606404	-0.0804374	0.088437	0.0242035	-0.578527	0.649247	1.39773	1.18909	0	0	-0.00614007	-0.663852	0.43558	1.5243	1.22308	0	0
0.19	-3.07184	1.35097	-1.61242	0.756309	-0.533416	0.96657	-0.404706	0.0505602	-0.227759	0	0.0552435	0	0	-0.14764	-0.117436	-0.384642	0.425235	0.140365	0	0	-0.658081	-0.0351953	0.0892399	0.0181613	-0.582817	0.650189	1.39747	1.19214	0	0	-0.01487	-0.656992	0.433409	1.5201	1.2238	0	0
0.2	-2.91247	1.38733	-1.7757	0.756424	-0.532986	0.960757	-0.354814	0.0160166	-0.205356	0.0106504	0.0849346	0	0	-0.103714	-0.0801854	-0.401553	0.386674	0.140106	0	0	-0.611992	-0.0637916	0.0784947	0.0141868	-0.57585	0.65026	1.38937	1.19812	0	0	-0.0212556	-0.659751	0.430782	1.52126	1.22282	0	0
0.21	-2.93518	1.37863	-1.75308	0.754996	-0.53001	0.96029	-0.36575	0.0135854	-0.212753	0.0331532	0.126745	0	0	-0.117882	-0.0714689	-0.396129	0.345226	0.143339	0	0	-0.612514	-0.0575367	0.0786459	0.0159961	-0.554929	0.550171	1.38224	1.5708	0	0	-0.0325788	-0.655031	0.425162	1.52193	1.22578	0	0
0.22	-2.96062	1.36854	-1.7185	0.752232	-0.527586	0.961031	-0.385247	0.01905	-0.241467	0.0232074	0.122071	0	0	-0.136755	-0.0632055	-0.393389	0.291808	0.130222	0	0	-0.616375	-0.0457092	0.0712006	0.0119437	-0.558961	0.551876	1.38218	1.5708	0	0	-0.0413148	-0.648172	0.420057	1.51853	1.22676	0	0
0.23	-2.93766	1.37969	-1.74246	0.753706	-0.525646	0.958525	-0.379091	0.0201151	-0.207268	0.00229382	0.0952031	0	0	-0.127358	-0.0552448	-0.394127	0.254358	0.100886	0	0	-0.596409	-0.0530932	0.070603	-0.00400075	-0.576024	0.648627	1.38752	1.19174	0	0	-0.0495686	-0.653459	0.416361	1.52218	1.22653	0	0
